<svg xmlns="http://www.w3.org/2000/svg" width="12.102" height="12.096" viewBox="0 0 12.102 12.096"><defs><style>.a{fill:#333;stroke:#333;stroke-width:0.5px;}</style></defs><path class="a" d="M10.167.433a1.582,1.582,0,0,0-2.235,0L7.372,1,1.417,6.948,1.4,6.961s0,.006-.006.006-.016.019-.022.028,0,0,0,.006l-.016.025s0,.006-.006.009-.006.016-.01.025,0,0,0,.006L.017,11.042a.311.311,0,0,0,.076.322.318.318,0,0,0,.224.092.373.373,0,0,0,.1-.016l3.97-1.325s0,0,.006,0a.114.114,0,0,0,.028-.013l.006,0,.032-.019c.009-.006.019-.016.028-.022s.006,0,.006-.006.01-.006.013-.013l6.515-6.515a1.582,1.582,0,0,0,0-2.235ZM4.287,9.372l-2.2-2.2L7.594,1.666l2.2,2.2ZM1.777,7.757,3.7,9.679.813,10.64Zm8.8-4.678-.335.338-2.2-2.2L8.381.879a.948.948,0,0,1,1.34,0l.86.86A.951.951,0,0,1,10.578,3.079Zm0,0" transform="translate(0.256 0.39)"/></svg>