<?xml version="1.0" encoding="utf-8"?>
<!-- Generator: Adobe Illustrator 16.0.0, SVG Export Plug-In . SVG Version: 6.00 Build 0)  -->
<!DOCTYPE svg PUBLIC "-//W3C//DTD SVG 1.1//EN" "http://www.w3.org/Graphics/SVG/1.1/DTD/svg11.dtd">
<svg version="1.1" id="Layer_1" xmlns="http://www.w3.org/2000/svg" xmlns:xlink="http://www.w3.org/1999/xlink" x="0px" y="0px"
	 width="15px" height="25px" viewBox="0 0 15 25" enable-background="new 0 0 15 25" xml:space="preserve">
<g transform="translate(-1027.919 -1245.193)">
	<path fill="#3289A4" d="M1032.289,1251.389l-3.193-3.947c-0.329-0.408-0.659-0.815-0.989-1.219
		c-0.242-0.219-0.261-0.591-0.043-0.833c0.131-0.146,0.326-0.217,0.52-0.189c1.524,0.006,3.049,0.006,4.573,0
		c0.246-0.009,0.48,0.106,0.624,0.307c0.532,0.663,1.07,1.328,1.634,2.017c0.098-0.116,0.185-0.219,0.271-0.323
		c0.453-0.561,0.911-1.116,1.357-1.682c0.156-0.212,0.41-0.331,0.676-0.315c1.498,0.01,2.993,0.01,4.486,0
		c0.326-0.063,0.641,0.149,0.703,0.474c0.043,0.214-0.036,0.435-0.204,0.575c-1.343,1.656-2.685,3.313-4.024,4.972
		c-0.039,0.05-0.078,0.102-0.131,0.168l1.941,2.399c0.736,0.909,1.472,1.816,2.208,2.725c0.259,0.211,0.298,0.592,0.086,0.851
		c-0.144,0.177-0.375,0.258-0.597,0.208c-1.486,0-2.974-0.004-4.461,0c-0.273,0.016-0.535-0.109-0.697-0.33
		c-0.516-0.661-1.053-1.307-1.607-1.991c-0.399,0.491-0.778,0.962-1.163,1.43c-0.866,1.047-0.493,0.879-1.857,0.889
		c-1.207,0.01-2.413,0-3.618,0h-0.225c-0.241,0.022-0.47-0.105-0.577-0.322c-0.109-0.228-0.063-0.498,0.116-0.676l1.783-2.203
		L1032.289,1251.389z M1029.719,1246.359c0.079,0.102,0.114,0.16,0.153,0.205c2.622,3.241,5.246,6.481,7.873,9.719
		c0.087,0.087,0.205,0.137,0.328,0.139c0.926,0.011,1.852,0.006,2.776,0.006h0.268c-0.088-0.117-0.138-0.19-0.194-0.259
		l-4.178-5.168c-1.182-1.461-2.365-2.921-3.549-4.379c-0.088-0.109-0.22-0.251-0.334-0.253
		C1031.836,1246.351,1030.808,1246.359,1029.719,1246.359L1029.719,1246.359z M1029.697,1256.431c1.101,0,2.119,0,3.136,0
		c0.072,0.004,0.143-0.02,0.197-0.067c0.55-0.67,1.092-1.346,1.643-2.027l-1.64-2.024L1029.697,1256.431z M1036.157,1248.444
		l1.642,2.027l3.326-4.112c-1.101,0-2.129,0-3.156,0c-0.079,0.008-0.151,0.047-0.204,0.108
		C1037.227,1247.121,1036.7,1247.775,1036.157,1248.444z"/>
</g>
<g transform="translate(-1027.919 -1245.193)">
	<path fill="#FFFFFF" d="M1032.289,1263.991l-3.193-3.946c-0.329-0.407-0.659-0.815-0.989-1.219
		c-0.242-0.219-0.261-0.591-0.043-0.833c0.131-0.146,0.326-0.217,0.52-0.189c1.524,0.007,3.049,0.007,4.573,0
		c0.246-0.008,0.48,0.106,0.624,0.307c0.532,0.664,1.07,1.328,1.634,2.018c0.098-0.115,0.185-0.219,0.271-0.323
		c0.453-0.561,0.911-1.116,1.357-1.683c0.156-0.212,0.41-0.33,0.676-0.314c1.498,0.01,2.993,0.01,4.486,0
		c0.326-0.064,0.641,0.148,0.703,0.474c0.043,0.214-0.036,0.435-0.204,0.575c-1.343,1.655-2.685,3.313-4.024,4.972
		c-0.039,0.05-0.078,0.102-0.131,0.169l1.941,2.398c0.736,0.909,1.472,1.816,2.208,2.725c0.259,0.211,0.298,0.592,0.086,0.852
		c-0.144,0.176-0.375,0.258-0.597,0.207c-1.486,0-2.974-0.004-4.461,0c-0.273,0.016-0.535-0.109-0.697-0.33
		c-0.516-0.66-1.053-1.307-1.607-1.99c-0.399,0.49-0.778,0.962-1.163,1.43c-0.866,1.047-0.493,0.879-1.857,0.889
		c-1.207,0.01-2.413,0-3.618,0h-0.225c-0.241,0.023-0.47-0.105-0.577-0.322c-0.109-0.227-0.063-0.498,0.116-0.676l1.783-2.202
		L1032.289,1263.991z M1029.719,1258.962c0.079,0.102,0.114,0.159,0.153,0.204c2.622,3.241,5.246,6.481,7.873,9.719
		c0.087,0.087,0.205,0.137,0.328,0.139c0.926,0.011,1.852,0.007,2.776,0.007h0.268c-0.088-0.117-0.138-0.19-0.194-0.26l-4.178-5.168
		c-1.182-1.461-2.365-2.921-3.549-4.379c-0.088-0.109-0.22-0.252-0.334-0.254
		C1031.836,1258.954,1030.808,1258.962,1029.719,1258.962L1029.719,1258.962z M1029.697,1269.034c1.101,0,2.119,0,3.136,0
		c0.072,0.004,0.143-0.021,0.197-0.067c0.55-0.671,1.092-1.346,1.643-2.027l-1.64-2.024L1029.697,1269.034z M1036.157,1261.047
		l1.642,2.026l3.326-4.111c-1.101,0-2.129,0-3.156,0c-0.079,0.008-0.151,0.047-0.204,0.107
		C1037.227,1259.723,1036.7,1260.378,1036.157,1261.047z"/>
</g>
</svg>
