<?xml version="1.0" encoding="utf-8"?>
<!-- Generator: Adobe Illustrator 16.0.0, SVG Export Plug-In . SVG Version: 6.00 Build 0)  -->
<!DOCTYPE svg PUBLIC "-//W3C//DTD SVG 1.1//EN" "http://www.w3.org/Graphics/SVG/1.1/DTD/svg11.dtd">
<svg version="1.1" id="Layer_1" xmlns="http://www.w3.org/2000/svg" xmlns:xlink="http://www.w3.org/1999/xlink" x="0px" y="0px"
	 width="6.7px" height="5.3px" viewBox="0 0 6.7 5.3" enable-background="new 0 0 6.7 5.3" xml:space="preserve">
<path fill="#5E5E5E" d="M4.316,0.732l-0.605,0.61C2.981,1.146,2.229,1.58,2.034,2.31c-0.062,0.233-0.062,0.477,0,0.709L1.089,3.961
	C0.637,3.619,0.26,3.174,0,2.664c0.805-1.579,2.602-2.382,4.314-1.932H4.316z M5.619,1.366C6.073,1.708,6.45,2.154,6.715,2.664
	C5.909,4.246,4.109,5.051,2.393,4.595l0.605-0.609C3.73,4.182,4.481,3.749,4.677,3.018c0.063-0.233,0.063-0.478,0-0.71l0.946-0.942
	H5.619z M5.533,0l0.484,0.486l-4.84,4.841L0.692,4.842L5.533,0z"/>
</svg>
