<?xml version="1.0" encoding="utf-8"?>
<!-- Generator: Adobe Illustrator 16.0.0, SVG Export Plug-In . SVG Version: 6.00 Build 0)  -->
<!DOCTYPE svg PUBLIC "-//W3C//DTD SVG 1.1//EN" "http://www.w3.org/Graphics/SVG/1.1/DTD/svg11.dtd">
<svg version="1.1" id="Layer_1" xmlns="http://www.w3.org/2000/svg" xmlns:xlink="http://www.w3.org/1999/xlink" x="0px" y="0px"
	 width="18.273px" height="12.85px" viewBox="0 0 18.273 12.85" enable-background="new 0 0 18.273 12.85" xml:space="preserve">
<path d="M5.969,12.656c0.252,0.254,0.662,0.256,0.917,0.005c0.254-0.252,0.256-0.662,0.004-0.917l0,0l-4.67-4.67h15.409
	c0.354,0.002,0.644-0.284,0.645-0.639c0-0.002,0-0.004,0-0.006c0.003-0.358-0.285-0.651-0.644-0.654h-0.001H2.219l4.67-4.661
	c0.249-0.257,0.249-0.664,0-0.921C6.64-0.062,6.232-0.066,5.977,0.184C5.974,0.187,5.971,0.19,5.968,0.193L0.193,5.968
	c-0.252,0.244-0.259,0.646-0.016,0.896C0.183,6.87,0.188,6.875,0.193,6.88L5.969,12.656z"/>
</svg>
