<?xml version="1.0" encoding="utf-8"?>
<!-- Generator: Adobe Illustrator 16.0.0, SVG Export Plug-In . SVG Version: 6.00 Build 0)  -->
<!DOCTYPE svg PUBLIC "-//W3C//DTD SVG 1.1//EN" "http://www.w3.org/Graphics/SVG/1.1/DTD/svg11.dtd">
<svg version="1.1" id="Layer_1" xmlns="http://www.w3.org/2000/svg" xmlns:xlink="http://www.w3.org/1999/xlink" x="0px" y="0px"
	 width="6.7px" height="5.3px" viewBox="0 0 6.7 5.3" enable-background="new 0 0 6.7 5.3" xml:space="preserve">
<path fill="#5D5D5D" d="M0,2.663c0.942-1.85,3.207-2.586,5.059-1.642C5.766,1.38,6.338,1.956,6.7,2.663
	c-0.943,1.85-3.208,2.585-5.058,1.641C0.935,3.945,0.359,3.37,0,2.663z M3.35,4.031c0.754,0,1.368-0.612,1.368-1.368
	S4.104,1.295,3.35,1.295c-0.756,0-1.367,0.612-1.367,1.368S2.594,4.031,3.35,4.031z M3.35,3.347c-0.378,0-0.684-0.306-0.684-0.684
	S2.972,1.979,3.35,1.979c0.377,0,0.684,0.306,0.684,0.684S3.727,3.347,3.35,3.347z"/>
</svg>
