<svg xmlns="http://www.w3.org/2000/svg" width="14.215" height="14.195" viewBox="0 0 14.215 14.195"><defs><style>.a{fill:#3188a3;}</style></defs><g transform="translate(0 8.67)"><path class="a" d="M13.1,312.642V316.5a.556.556,0,0,1-.555.555H1.666a.556.556,0,0,1-.555-.555v-3.859H0V316.5a1.668,1.668,0,0,0,1.666,1.666H12.549a1.668,1.668,0,0,0,1.666-1.666v-3.859Z" transform="translate(0 -312.642)"/></g><g transform="translate(3.657 0)"><path class="a" d="M135.167.358l-3.451,3.451.785.785,2.11-2.11v8.654h1.111V2.484l2.11,2.11.785-.785Z" transform="translate(-131.716 -0.358)"/></g></svg>